HIERARCHY
ROOT Hips
{
	OFFSET -0.001795 -0.223333 0.028219
	CHANNELS 6 Xposition Yposition Zposition Zrotation Yrotation Xrotation 
	JOINT LeftUpLeg
	{
		OFFSET 0.069520 -0.091406 -0.006815
		CHANNELS 3 Zrotation Yrotation Xrotation
		JOINT LeftLeg
		{
			OFFSET 0.034277 -0.375199 -0.004496
			CHANNELS 3 Zrotation Yrotation Xrotation
			JOINT LeftFoot
			{
				OFFSET -0.013596 -0.397961 -0.043693
				CHANNELS 3 Zrotation Yrotation Xrotation
				JOINT LeftToe
				{
					OFFSET 0.026358 -0.055791 0.119288
					CHANNELS 3 Zrotation Yrotation Xrotation
					End Site
					{
						OFFSET 0.000000 0.000000 0.000000
					}
				}
			}
		}
	}
	JOINT RightUpLeg
	{
		OFFSET -0.067670 -0.090522 -0.004320
		CHANNELS 3 Zrotation Yrotation Xrotation
		JOINT RightLeg
		{
			OFFSET -0.038290 -0.382569 -0.008850
			CHANNELS 3 Zrotation Yrotation Xrotation
			JOINT RightFoot
			{
				OFFSET 0.015774 -0.398415 -0.042312
				CHANNELS 3 Zrotation Yrotation Xrotation
				JOINT RightToe
				{
					OFFSET -0.025372 -0.048144 0.123348
					CHANNELS 3 Zrotation Yrotation Xrotation
					End Site
					{
						OFFSET 0.000000 0.000000 0.000000
					}
				}
			}
		}
	}
	JOINT Spine
	{
		OFFSET -0.002533 0.108963 -0.026696
		CHANNELS 3 Zrotation Yrotation Xrotation
		JOINT Spine1
		{
			OFFSET 0.005487 0.135180 0.001092
			CHANNELS 3 Zrotation Yrotation Xrotation
			JOINT Spine2
			{
				OFFSET 0.001457 0.052922 0.025425
				CHANNELS 3 Zrotation Yrotation Xrotation
				JOINT Neck
				{
					OFFSET -0.002778 0.213870 -0.042857
					CHANNELS 3 Zrotation Yrotation Xrotation
					JOINT Head
					{
						OFFSET 0.005152 0.064970 0.051349
						CHANNELS 3 Zrotation Yrotation Xrotation
						End Site
						{
							OFFSET 0.000000 0.000000 0.000000
						}
					}
				}
				JOINT LeftShoulder
				{
					OFFSET 0.078845 0.121749 -0.034090
					CHANNELS 3 Zrotation Yrotation Xrotation
					JOINT LeftArm
					{
						OFFSET 0.090977 0.030469 -0.008868
						CHANNELS 3 Zrotation Yrotation Xrotation
						JOINT LeftForeArm
						{
							OFFSET 0.259612 -0.012772 -0.027456
							CHANNELS 3 Zrotation Yrotation Xrotation
							JOINT LeftHand
							{
								OFFSET 0.249234 0.008986 -0.001171
								CHANNELS 3 Zrotation Yrotation Xrotation
								End Site
								{
									OFFSET 0.000000 0.000000 0.000000
								}
							}
						}
					}
				}
				JOINT RightShoulder
				{
					OFFSET -0.081759 0.118833 -0.038615
					CHANNELS 3 Zrotation Yrotation Xrotation
					JOINT RightArm
					{
						OFFSET -0.096012 0.032551 -0.009143
						CHANNELS 3 Zrotation Yrotation Xrotation
						JOINT RightForeArm
						{
							OFFSET -0.253742 -0.013329 -0.021401
							CHANNELS 3 Zrotation Yrotation Xrotation
							JOINT RightHand
							{
								OFFSET -0.255298 0.007772 -0.005559
								CHANNELS 3 Zrotation Yrotation Xrotation
								End Site
								{
									OFFSET 0.000000 0.000000 0.000000
								}
							}
						}
					}
				}
			}
		}
	}
}
MOTION
Frames: 13
Frame Time: 0.050000
0.182618 0.945764 0.416017 -2.344361 36.825657 3.941990 2.575363 -0.727382 -7.979667 -0.487663 -0.091969 1.606756 -3.226578 -0.273341 6.761636 0.000000 0.000000 0.000000 -2.518603 0.331843 -9.588507 1.788113 -0.547614 5.496920 -5.999300 -11.514416 13.384267 0.000000 0.000000 0.000000 -0.711902 0.012207 -0.984316 -0.488258 -0.146997 1.092845 5.046369 -0.083813 5.046973 3.316986 1.298063 -17.637089 0.000000 0.000000 0.000000 -25.534933 -4.028171 -6.672759 -52.635992 7.107178 -7.897004 -1.600955 -30.316062 0.212889 0.000000 0.000000 0.000000 26.723762 4.848957 7.515715 49.731769 12.541318 -1.897213 -33.188677 68.505108 -13.640419 0.000000 0.000000 0.000000 
0.183213 0.945752 0.417464 -2.054179 37.049151 3.860718 2.295882 -0.675814 -7.516434 -0.401688 -0.087728 1.407081 -3.386270 -0.513659 6.784734 0.000000 0.000000 0.000000 -2.735986 0.286039 -9.052701 1.793739 -0.542286 5.279657 -6.082204 -11.698335 13.259253 0.000000 0.000000 0.000000 -0.764021 0.012874 -1.074924 -0.490494 -0.165270 1.197353 4.957141 -0.236407 5.122114 2.592952 1.661762 -17.259305 0.000000 0.000000 0.000000 -25.869089 -4.008463 -6.780877 -52.428667 7.350832 -7.928138 -0.806651 -29.963601 0.014177 0.000000 0.000000 0.000000 26.842050 4.165629 7.064245 50.407320 10.509622 -2.701584 -32.630914 66.782044 -12.811081 0.000000 0.000000 0.000000 
0.183700 0.945612 0.418320 -1.798905 37.249313 3.790832 2.220873 -0.636022 -7.105989 -0.651037 -0.070025 1.179432 -3.520404 -0.711121 6.817356 0.000000 0.000000 0.000000 -2.905297 0.249665 -8.611422 1.736874 -0.523362 5.103208 -6.160451 -11.878550 13.129239 0.000000 0.000000 0.000000 -0.863856 0.014371 -1.264403 -0.664740 -0.174748 1.709634 4.980645 -0.376475 4.895290 2.274651 1.771753 -16.894422 0.000000 0.000000 0.000000 -25.400526 -3.613889 -6.789891 -52.778136 7.464364 -8.117916 -0.244774 -29.998445 -0.141561 0.000000 0.000000 0.000000 26.016363 3.720911 6.519879 51.163911 9.406161 -3.003497 -32.992610 63.520123 -12.197387 0.000000 0.000000 0.000000 
0.183884 0.945859 0.418742 -1.536567 37.050959 3.629775 2.117268 -0.588584 -6.611855 -0.888862 -0.054647 1.018487 -3.513729 -0.592813 6.954337 0.000000 0.000000 0.000000 -3.188760 0.199673 -7.997846 1.838593 -0.522179 4.642283 -6.032094 -11.688872 13.077657 0.000000 0.000000 0.000000 -0.802373 0.015381 -1.325367 -0.927093 -0.052285 1.744696 4.963991 -0.266477 5.041570 1.831735 2.011720 -16.736659 0.000000 0.000000 0.000000 -25.421131 -3.376158 -6.919643 -52.968353 7.645936 -8.263344 -0.019707 -30.250441 -0.209978 0.000000 0.000000 0.000000 25.539910 3.687317 6.410250 51.540444 10.036334 -2.698559 -33.691134 59.918277 -11.646164 0.000000 0.000000 0.000000 
0.183835 0.946106 0.418705 -1.404808 36.767022 3.650081 2.007095 -0.564107 -6.377914 -0.919610 -0.043923 0.771736 -3.456811 -0.384695 7.099941 0.000000 0.000000 0.000000 -3.254766 0.185190 -7.503130 1.743121 -0.460322 3.797005 -5.899135 -11.454639 13.154633 0.000000 0.000000 0.000000 -0.690341 0.018917 -1.661832 -1.206326 0.084323 1.733520 4.879390 -0.029409 5.314924 1.721161 2.083590 -16.664486 0.000000 0.000000 0.000000 -25.061283 -3.275935 -6.900391 -53.173642 7.580002 -8.332960 0.112488 -30.462679 -0.267753 0.000000 0.000000 0.000000 25.206337 4.236240 6.771788 51.398561 11.929505 -1.918438 -34.450252 56.232657 -11.095718 0.000000 0.000000 0.000000 
0.183713 0.946257 0.418487 -1.288947 36.449082 3.611650 1.875642 -0.547698 -6.247828 -0.899567 -0.043273 0.790976 -3.341154 -0.154895 7.156380 0.000000 0.000000 0.000000 -3.258986 0.186282 -7.340479 1.543827 -0.404223 3.610149 -5.760483 -11.226945 13.126818 0.000000 0.000000 0.000000 -0.514599 0.021821 -1.804120 -1.437599 0.165209 1.933522 4.676863 0.210508 5.201469 1.821048 1.980140 -16.344874 0.000000 0.000000 0.000000 -25.043749 -3.311328 -6.885461 -53.002052 7.766291 -8.362322 0.248016 -31.066855 -0.328549 0.000000 0.000000 0.000000 25.287942 4.738460 7.120648 50.141805 13.745877 -1.233262 -34.438970 53.807323 -10.596625 0.000000 0.000000 0.000000 
0.183598 0.946419 0.418306 -1.176174 36.099395 3.478190 1.678837 -0.522276 -6.040452 -0.762843 -0.048097 0.866081 -3.205063 0.083137 7.181529 0.000000 0.000000 0.000000 -3.436170 0.159956 -7.058913 1.651027 -0.415503 3.386388 -5.572597 -10.919250 13.084895 0.000000 0.000000 0.000000 -0.335017 0.023933 -1.833165 -1.641060 0.291901 1.788537 4.510948 0.545041 5.355430 1.713752 2.050118 -16.219669 0.000000 0.000000 0.000000 -25.199220 -3.379799 -6.976396 -52.692358 7.799108 -8.270250 -0.003503 -31.585649 -0.289501 0.000000 0.000000 0.000000 25.250569 5.415061 7.641202 48.538392 15.973957 -0.478613 -33.343506 52.097855 -9.767197 0.000000 0.000000 0.000000 
0.183515 0.946323 0.418346 -1.012749 35.795035 3.334173 1.430055 -0.487604 -5.741709 -0.601818 -0.052366 0.871403 -3.072669 0.266059 7.144053 0.000000 0.000000 0.000000 -3.444306 0.156326 -6.867951 1.395457 -0.357076 3.442499 -5.439836 -10.732791 12.903051 0.000000 0.000000 0.000000 -0.213987 0.026148 -1.930033 -1.875959 0.393554 1.877559 4.328265 0.790196 5.339167 1.862863 1.836113 -15.341987 0.000000 0.000000 0.000000 -25.111487 -3.303568 -7.015263 -52.394772 8.065861 -8.317850 -0.518637 -32.417526 -0.172734 0.000000 0.000000 0.000000 25.243801 6.168239 8.154843 46.794353 17.986000 0.159795 -31.304735 51.351786 -8.852538 0.000000 0.000000 0.000000 
0.183256 0.946161 0.418542 -0.907332 35.734570 3.261974 1.308924 -0.456695 -5.427053 -0.524128 -0.045025 0.590706 -3.071505 0.274388 7.153158 0.000000 0.000000 0.000000 -3.448008 0.150077 -6.682054 1.271265 -0.326934 3.363774 -5.414330 -10.718083 12.782909 0.000000 0.000000 0.000000 -0.062982 0.028826 -2.093805 -1.963617 0.411437 2.035930 4.214035 1.043266 5.213503 1.943686 1.736559 -14.913015 0.000000 0.000000 0.000000 -25.440104 -3.576324 -7.040556 -52.022771 8.313351 -8.266210 -1.252904 -33.295799 0.014137 0.000000 0.000000 0.000000 25.429763 6.849146 8.703865 45.196482 19.751043 0.649376 -29.145634 51.180870 -8.002467 0.000000 0.000000 0.000000 
0.182744 0.945976 0.418805 -0.904662 35.826907 3.254238 1.272188 -0.448295 -5.342808 -0.387763 -0.045085 0.433113 -3.113859 0.189511 7.126595 0.000000 0.000000 0.000000 -3.323482 0.162857 -6.671512 1.123672 -0.296855 3.381325 -5.473426 -10.833247 12.709116 0.000000 0.000000 0.000000 0.113410 0.031562 -2.328252 -2.069630 0.442339 2.127126 3.893649 1.416349 5.144645 2.418080 1.468391 -14.779011 0.000000 0.000000 0.000000 -25.260962 -3.964682 -6.940673 -51.877338 8.344145 -8.196436 -1.900304 -34.004612 0.147722 0.000000 0.000000 0.000000 26.016418 7.428211 9.405549 43.578897 21.315955 0.946937 -27.133713 50.548935 -7.117650 0.000000 0.000000 0.000000 
0.181959 0.945895 0.419005 -0.827392 35.980839 3.344538 1.266868 -0.444105 -5.296645 -0.396480 -0.037668 0.194463 -3.221844 0.076444 7.202198 0.000000 0.000000 0.000000 -3.175539 0.182234 -6.741651 0.845226 -0.239533 3.427908 -5.573927 -11.015634 12.665307 0.000000 0.000000 0.000000 0.201479 0.033164 -2.505966 -2.155242 0.445160 2.330580 3.808001 1.717979 4.961924 2.558105 1.358227 -14.458258 0.000000 0.000000 0.000000 -25.252061 -4.304923 -6.880091 -51.662337 8.473812 -8.140388 -2.628500 -34.842097 0.324775 0.000000 0.000000 0.000000 26.167135 7.686747 9.732900 42.971745 22.580707 1.304562 -25.720244 50.425738 -6.513592 0.000000 0.000000 0.000000 
0.181036 0.945796 0.419177 -0.744059 36.183132 3.590693 1.355350 -0.456912 -5.407381 -0.562545 -0.025561 -0.088484 -3.359283 -0.045052 7.325551 0.000000 0.000000 0.000000 -2.960296 0.210872 -6.824471 0.455578 -0.154221 3.197618 -5.714162 -11.247984 12.692013 0.000000 0.000000 0.000000 0.290140 0.034520 -2.768928 -2.118359 0.418063 2.341550 3.534044 1.896810 5.021500 2.934486 1.196343 -14.656797 0.000000 0.000000 0.000000 -25.024812 -4.566429 -6.802277 -51.716604 8.292446 -8.054789 -3.725007 -35.662626 0.617560 0.000000 0.000000 0.000000 26.700432 8.091513 10.312024 41.822452 24.099157 1.585951 -24.847814 50.063692 -6.130244 0.000000 0.000000 0.000000 
0.180030 0.946064 0.419437 -0.668192 36.224429 3.835937 1.449949 -0.472512 -5.547948 -0.725783 -0.016416 -0.292005 -3.453505 -0.022869 7.545725 0.000000 0.000000 0.000000 -2.891275 0.227290 -7.038726 0.331168 -0.127870 3.149830 -5.756790 -11.294455 12.773572 0.000000 0.000000 0.000000 0.292828 0.034627 -3.001832 -2.248168 0.466853 2.376584 3.491383 2.274624 5.037509 3.249756 1.070859 -14.816988 0.000000 0.000000 0.000000 -24.802763 -5.031492 -6.628724 -51.754442 8.344900 -8.055792 -4.474208 -36.690564 0.806965 0.000000 0.000000 0.000000 26.654308 8.452428 10.703779 41.176918 25.530801 1.963659 -25.251826 49.496366 -6.214696 0.000000 0.000000 0.000000 
